<svg width="242" height="41" viewBox="0 0 242 41" fill="none" xmlns="http://www.w3.org/2000/svg">
<g clip-path="url(#clip0)">
<path d="M8.7475 13.8367L8.32286 13.4116L6.56063 15.197C6.48222 15.2771 6.37539 15.3229 6.26338 15.3245H2.97245C2.85792 15.3151 2.75143 15.2618 2.67521 15.1757L0.721881 13.2416C0.689514 13.145 0.689514 13.0405 0.721881 12.944V5.07982C0.735147 4.96628 0.787735 4.861 0.870504 4.78225L2.67521 2.78433C2.77105 2.74848 2.87661 2.74848 2.97245 2.78433H6.26338C6.35252 2.75184 6.45025 2.75184 6.53939 2.78433L8.30163 4.54845L8.72627 4.10211L7.09142 2.46551C6.9567 2.32662 6.79471 2.21716 6.61567 2.144C6.43662 2.07084 6.24439 2.03557 6.05106 2.04042H3.09984C2.90813 2.03863 2.71821 2.07748 2.54256 2.15441C2.36692 2.23134 2.20952 2.3446 2.08072 2.48676L0.382172 4.18713C0.242938 4.31713 0.133032 4.47539 0.059802 4.65133C-0.0134276 4.82727 -0.0482933 5.01683 -0.0424636 5.20734V12.7527C-0.0432946 12.9476 -0.00415141 13.1406 0.0725422 13.3197C0.149236 13.4989 0.261847 13.6604 0.403404 13.7942L2.10195 15.4945C2.3798 15.7671 2.75331 15.9197 3.14231 15.9196H6.07229C6.26245 15.9288 6.45252 15.8997 6.63122 15.8339C6.80993 15.7682 6.97364 15.6673 7.11265 15.537L8.7475 13.8367Z" fill="#1D1D1B"/>
<path d="M143.527 0H143.017L134.44 17.4075H134.949L143.527 0Z" fill="#1D1D1B"/>
<path d="M178.708 13.5179L178.283 13.0716L176.521 14.857C176.443 14.937 176.336 14.9829 176.224 14.9845H172.954C172.842 14.9829 172.735 14.937 172.657 14.857L170.725 12.9015C170.65 12.8283 170.604 12.7299 170.597 12.6252V4.73979C170.612 4.63272 170.665 4.53454 170.746 4.46348L172.678 2.50807C172.751 2.43292 172.85 2.38749 172.954 2.38054H176.245C176.298 2.37888 176.35 2.38954 176.398 2.41167C176.446 2.43381 176.488 2.46681 176.521 2.50807L178.283 4.27219L178.708 3.8471L177.073 2.2105C176.939 2.06879 176.778 1.95606 176.599 1.87929C176.42 1.80251 176.227 1.76333 176.033 1.76416H173.103C172.913 1.76345 172.725 1.80069 172.55 1.87369C172.375 1.94669 172.217 2.05398 172.084 2.18925L170.385 3.88961C170.247 4.02525 170.139 4.18754 170.066 4.3666C169.993 4.54565 169.957 4.73772 169.96 4.93108V12.4339C169.978 12.8051 170.138 13.1552 170.406 13.4116L172.105 15.0908C172.239 15.2325 172.4 15.3452 172.579 15.422C172.758 15.4987 172.951 15.5379 173.145 15.5371H176.033C176.226 15.5419 176.418 15.5067 176.597 15.4335C176.776 15.3604 176.938 15.2509 177.073 15.112L178.708 13.5179Z" fill="#1D1D1B"/>
<path d="M8.78998 38.9171L8.36534 38.492L6.60311 40.2773C6.5247 40.3574 6.41787 40.4033 6.30586 40.4049H3.09986C3.04564 40.4024 2.99266 40.3878 2.94488 40.362C2.89709 40.3363 2.85572 40.3001 2.82385 40.2561L0.870521 38.3219C0.794018 38.2411 0.748846 38.1356 0.74313 38.0244V30.1602C0.756396 30.0467 0.808984 29.9414 0.891752 29.8626L2.82385 27.9072C2.89698 27.8321 2.99529 27.7866 3.09986 27.7797H6.30586C6.42039 27.7891 6.52688 27.8424 6.60311 27.9285L8.36534 29.6926L8.76875 29.2462L7.1339 27.6096C6.99918 27.4708 6.83719 27.3613 6.65815 27.2881C6.4791 27.215 6.28687 27.1797 6.09354 27.1846H3.20602C3.01133 27.1837 2.81854 27.2229 2.63958 27.2997C2.46063 27.3765 2.29933 27.4892 2.16566 27.6309L0.467116 29.3313C0.198083 29.6029 0.0457051 29.969 0.0424805 30.3515V37.8331C0.0503264 38.225 0.210233 38.5985 0.488348 38.8745L2.18689 40.5749C2.46474 40.8474 2.83826 41.0001 3.22725 41H6.11477C6.30947 41.0008 6.50226 40.9616 6.68121 40.8849C6.86016 40.8081 7.02146 40.6954 7.15513 40.5537L8.78998 38.9171Z" fill="#1D1D1B"/>
<path d="M29.1512 40.9362V40.3199L21.7838 40.3411L21.7626 34.3473H29.13V33.731L21.7626 33.7522L21.7413 27.7372L29.13 27.7159L29.1088 27.1208L21.1469 27.1421L21.1681 40.9575L29.1512 40.9362Z" fill="#1D1D1B"/>
<path d="M53.7801 40.8937L53.7377 27.0783H52.6548L48.09 40.2986L43.4615 27.0995H42.3574L42.3787 40.915H43.0156L42.9944 27.5459L47.6441 40.915H48.5146L53.1432 27.5459L53.1644 40.8937H53.7801Z" fill="#1D1D1B"/>
<path d="M178.729 38.5983L178.326 38.1519L176.542 39.9373C176.464 40.0174 176.357 40.0632 176.245 40.0648H172.954C172.842 40.0632 172.735 40.0174 172.657 39.9373L170.831 37.9819C170.759 37.9066 170.714 37.8093 170.704 37.7056V29.8201C170.728 29.7164 170.779 29.621 170.852 29.5438L172.806 27.5884C172.879 27.5133 172.977 27.4678 173.082 27.4609H176.372C176.482 27.4714 176.586 27.516 176.67 27.5884L178.432 29.3525L178.835 28.9275L177.201 27.2909C177.072 27.1487 176.914 27.0354 176.739 26.9585C176.563 26.8816 176.373 26.8427 176.181 26.8445H173.145C172.952 26.8397 172.76 26.8749 172.581 26.9481C172.402 27.0213 172.24 27.1307 172.105 27.2696L170.428 28.97C170.286 29.1038 170.173 29.2653 170.097 29.4444C170.02 29.6235 169.981 29.8165 169.982 30.0114V37.493C169.984 37.882 170.136 38.2551 170.406 38.5345L172.126 40.2349C172.259 40.3701 172.418 40.4774 172.593 40.5504C172.768 40.6234 172.956 40.6607 173.145 40.66H176.054C176.245 40.6567 176.433 40.6156 176.608 40.539C176.783 40.4624 176.941 40.3518 177.073 40.2136L178.729 38.5983Z" fill="#1D1D1B"/>
<path d="M195.311 26.8232H194.483L189.366 40.6387H190.046L191.617 36.3878H198.262L199.876 40.6387H200.555L195.311 26.8232ZM191.85 35.7501L194.908 27.5034L197.986 35.7289L191.85 35.7501Z" fill="#1D1D1B"/>
<path d="M221.511 40.5749L213.825 33.6672L221.469 26.7595H220.577L213.188 33.4334V26.7595L212.573 26.7807L212.615 40.5962H213.231L213.21 33.986L220.556 40.5749H221.511Z" fill="#1D1D1B"/>
<path d="M241.363 37.578C241.386 37.6244 241.397 37.6753 241.397 37.7268C241.397 37.7784 241.386 37.8292 241.363 37.8756L239.41 39.831C239.335 39.9001 239.236 39.9381 239.134 39.9373H235.185C235.131 39.9322 235.079 39.9164 235.032 39.8908C234.984 39.8653 234.942 39.8305 234.909 39.7885L232.955 37.8543C232.879 37.7735 232.834 37.668 232.828 37.5568V29.6926C232.841 29.5791 232.894 29.4738 232.977 29.395L234.93 27.4396C234.965 27.4006 235.007 27.3691 235.055 27.3472C235.102 27.3253 235.154 27.3133 235.206 27.3121H239.155C239.262 27.3266 239.36 27.3795 239.431 27.4609L241.384 29.395C241.461 29.4759 241.506 29.5814 241.512 29.6926L241.363 37.578ZM242 37.3655V29.8839C242.002 29.692 241.963 29.5018 241.886 29.326C241.809 29.1502 241.696 28.9926 241.554 28.8637L239.856 27.1633C239.726 27.0239 239.568 26.9139 239.392 26.8406C239.216 26.7673 239.027 26.7324 238.836 26.7382H235.291C234.902 26.7404 234.53 26.8927 234.25 27.1633L232.573 28.8849C232.431 29.0139 232.318 29.1714 232.241 29.3473C232.164 29.5231 232.125 29.7132 232.127 29.9051V37.3867C232.127 37.7761 232.28 38.1501 232.552 38.4282L234.25 40.1286C234.386 40.2664 234.548 40.3752 234.727 40.4483C234.906 40.5214 235.098 40.5572 235.291 40.5537H238.773C238.965 40.5554 239.154 40.5166 239.33 40.4397C239.506 40.3627 239.663 40.2495 239.792 40.1073L241.49 38.4069C241.634 38.2748 241.748 38.1136 241.825 37.9341C241.902 37.7546 241.94 37.5608 241.936 37.3655" fill="#1D1D1B"/>
</g>
<defs>
<clipPath id="clip0">
<rect width="242" height="41" fill="white"/>
</clipPath>
</defs>
</svg>
