<svg width="36" height="36" viewBox="0 0 36 36" fill="none" xmlns="http://www.w3.org/2000/svg">
<path d="M24 18C24 16.3438 23.4141 14.9297 22.2422 13.7578C21.0703 12.5859 19.6562 12 18 12C16.3438 12 14.9297 12.5859 13.7578 13.7578C12.5859 14.9297 12 16.3438 12 18C12 19.6562 12.5859 21.0703 13.7578 22.2422C14.9297 23.4141 16.3438 24 18 24C19.6562 24 21.0703 23.4141 22.2422 22.2422C23.4141 21.0703 24 19.6562 24 18ZM27.2344 18C27.2344 20.5625 26.3359 22.7422 24.5391 24.5391C22.7422 26.3359 20.5625 27.2344 18 27.2344C15.4375 27.2344 13.2578 26.3359 11.4609 24.5391C9.66406 22.7422 8.76562 20.5625 8.76562 18C8.76562 15.4375 9.66406 13.2578 11.4609 11.4609C13.2578 9.66406 15.4375 8.76562 18 8.76562C20.5625 8.76562 22.7422 9.66406 24.5391 11.4609C26.3359 13.2578 27.2344 15.4375 27.2344 18ZM29.7656 8.39062C29.7656 8.98438 29.5547 9.49219 29.1328 9.91406C28.7109 10.3359 28.2031 10.5469 27.6094 10.5469C27.0156 10.5469 26.5078 10.3359 26.0859 9.91406C25.6641 9.49219 25.4531 8.98438 25.4531 8.39062C25.4531 7.79688 25.6641 7.28906 26.0859 6.86719C26.5078 6.44531 27.0156 6.23438 27.6094 6.23438C28.2031 6.23438 28.7109 6.44531 29.1328 6.86719C29.5547 7.28906 29.7656 7.79688 29.7656 8.39062ZM18 3.23438C17.8906 3.23438 17.293 3.23047 16.207 3.22266C15.1211 3.21484 14.2969 3.21484 13.7344 3.22266C13.1719 3.23047 12.418 3.25391 11.4727 3.29297C10.5273 3.33203 9.72266 3.41016 9.05859 3.52734C8.39453 3.64453 7.83594 3.78906 7.38281 3.96094C6.60156 4.27344 5.91406 4.72656 5.32031 5.32031C4.72656 5.91406 4.27344 6.60156 3.96094 7.38281C3.78906 7.83594 3.64453 8.39453 3.52734 9.05859C3.41016 9.72266 3.33203 10.5273 3.29297 11.4727C3.25391 12.418 3.23047 13.1719 3.22266 13.7344C3.21484 14.2969 3.21484 15.1211 3.22266 16.207C3.23047 17.293 3.23438 17.8906 3.23438 18C3.23438 18.1094 3.23047 18.707 3.22266 19.793C3.21484 20.8789 3.21484 21.7031 3.22266 22.2656C3.23047 22.8281 3.25391 23.582 3.29297 24.5273C3.33203 25.4727 3.41016 26.2773 3.52734 26.9414C3.64453 27.6055 3.78906 28.1641 3.96094 28.6172C4.27344 29.3984 4.72656 30.0859 5.32031 30.6797C5.91406 31.2734 6.60156 31.7266 7.38281 32.0391C7.83594 32.2109 8.39453 32.3555 9.05859 32.4727C9.72266 32.5898 10.5273 32.668 11.4727 32.707C12.418 32.7461 13.1719 32.7695 13.7344 32.7773C14.2969 32.7852 15.1211 32.7852 16.207 32.7773C17.293 32.7695 17.8906 32.7656 18 32.7656C18.1094 32.7656 18.707 32.7695 19.793 32.7773C20.8789 32.7852 21.7031 32.7852 22.2656 32.7773C22.8281 32.7695 23.582 32.7461 24.5273 32.707C25.4727 32.668 26.2773 32.5898 26.9414 32.4727C27.6055 32.3555 28.1641 32.2109 28.6172 32.0391C29.3984 31.7266 30.0859 31.2734 30.6797 30.6797C31.2734 30.0859 31.7266 29.3984 32.0391 28.6172C32.2109 28.1641 32.3555 27.6055 32.4727 26.9414C32.5898 26.2773 32.668 25.4727 32.707 24.5273C32.7461 23.582 32.7695 22.8281 32.7773 22.2656C32.7852 21.7031 32.7852 20.8789 32.7773 19.793C32.7695 18.707 32.7656 18.1094 32.7656 18C32.7656 17.8906 32.7695 17.293 32.7773 16.207C32.7852 15.1211 32.7852 14.2969 32.7773 13.7344C32.7695 13.1719 32.7461 12.418 32.707 11.4727C32.668 10.5273 32.5898 9.72266 32.4727 9.05859C32.3555 8.39453 32.2109 7.83594 32.0391 7.38281C31.7266 6.60156 31.2734 5.91406 30.6797 5.32031C30.0859 4.72656 29.3984 4.27344 28.6172 3.96094C28.1641 3.78906 27.6055 3.64453 26.9414 3.52734C26.2773 3.41016 25.4727 3.33203 24.5273 3.29297C23.582 3.25391 22.8281 3.23047 22.2656 3.22266C21.7031 3.21484 20.8789 3.21484 19.793 3.22266C18.707 3.23047 18.1094 3.23438 18 3.23438ZM36 18C36 21.5781 35.9609 24.0547 35.8828 25.4297C35.7266 28.6797 34.7578 31.1953 32.9766 32.9766C31.1953 34.7578 28.6797 35.7266 25.4297 35.8828C24.0547 35.9609 21.5781 36 18 36C14.4219 36 11.9453 35.9609 10.5703 35.8828C7.32031 35.7266 4.80469 34.7578 3.02344 32.9766C1.24219 31.1953 0.273438 28.6797 0.117188 25.4297C0.0390625 24.0547 0 21.5781 0 18C0 14.4219 0.0390625 11.9453 0.117188 10.5703C0.273438 7.32031 1.24219 4.80469 3.02344 3.02344C4.80469 1.24219 7.32031 0.273438 10.5703 0.117188C11.9453 0.0390625 14.4219 0 18 0C21.5781 0 24.0547 0.0390625 25.4297 0.117188C28.6797 0.273438 31.1953 1.24219 32.9766 3.02344C34.7578 4.80469 35.7266 7.32031 35.8828 10.5703C35.9609 11.9453 36 14.4219 36 18Z" fill="black"/>
</svg>
